<?xml version="1.0" standalone="no"?>
<svg xmlns:xlink="http://www.w3.org/1999/xlink" id="wave" style="transform:rotate(0deg); transition: 0.3s" viewBox="0 0 1440 100" version="1.1" xmlns="http://www.w3.org/2000/svg"><defs><linearGradient id="sw-gradient-0" x1="0" x2="0" y1="1" y2="0"><stop stop-color="rgba(255, 153, 187, 1)" offset="0%"/><stop stop-color="rgba(248.54, 179.714, 7.649, 1)" offset="100%"/></linearGradient></defs><path style="transform:translate(0, 0px); opacity:1" fill="url(#sw-gradient-0)" d="M0,0L48,8.3C96,17,192,33,288,33.3C384,33,480,17,576,8.3C672,0,768,0,864,6.7C960,13,1056,27,1152,28.3C1248,30,1344,20,1440,28.3C1536,37,1632,63,1728,61.7C1824,60,1920,30,2016,21.7C2112,13,2208,27,2304,26.7C2400,27,2496,13,2592,11.7C2688,10,2784,20,2880,23.3C2976,27,3072,23,3168,28.3C3264,33,3360,47,3456,43.3C3552,40,3648,20,3744,21.7C3840,23,3936,47,4032,46.7C4128,47,4224,23,4320,26.7C4416,30,4512,60,4608,68.3C4704,77,4800,63,4896,60C4992,57,5088,63,5184,70C5280,77,5376,83,5472,81.7C5568,80,5664,70,5760,61.7C5856,53,5952,47,6048,38.3C6144,30,6240,20,6336,26.7C6432,33,6528,57,6624,63.3C6720,70,6816,60,6864,55L6912,50L6912,100L6864,100C6816,100,6720,100,6624,100C6528,100,6432,100,6336,100C6240,100,6144,100,6048,100C5952,100,5856,100,5760,100C5664,100,5568,100,5472,100C5376,100,5280,100,5184,100C5088,100,4992,100,4896,100C4800,100,4704,100,4608,100C4512,100,4416,100,4320,100C4224,100,4128,100,4032,100C3936,100,3840,100,3744,100C3648,100,3552,100,3456,100C3360,100,3264,100,3168,100C3072,100,2976,100,2880,100C2784,100,2688,100,2592,100C2496,100,2400,100,2304,100C2208,100,2112,100,2016,100C1920,100,1824,100,1728,100C1632,100,1536,100,1440,100C1344,100,1248,100,1152,100C1056,100,960,100,864,100C768,100,672,100,576,100C480,100,384,100,288,100C192,100,96,100,48,100L0,100Z"/></svg>